<svg width="75" height="76" xmlns="http://www.w3.org/2000/svg" xmlns:xlink="http://www.w3.org/1999/xlink" overflow="hidden"><defs><clipPath id="clip0"><rect x="177" y="613" width="75" height="76"/></clipPath></defs><g clip-path="url(#clip0)" transform="translate(-177 -613)"><path d="M25.0312 39.9375C21.9867 36.7604 20.2949 32.5253 20.3125 28.125 20.3125 17.4062 30.0625 9 41.1875 11.3125" stroke="#00C389" stroke-width="3.125" stroke-linecap="round" stroke-linejoin="round" stroke-miterlimit="10" fill="none" transform="matrix(1 0 0 1.01333 177 613)"/><path d="M50.5 39.375C47.3438 43 45.3125 44.3438 45.3125 49.1562L45.3125 51.5625 29.6875 51.5625 29.6875 49.125C29.6875 44.5938 28.1562 43.2188 25.0312 39.9375" stroke="#F5B6CD" stroke-width="3.125" stroke-linecap="round" stroke-linejoin="round" stroke-miterlimit="10" fill="none" transform="matrix(1 0 0 1.01333 177 613)"/><path d="M41.1875 11.3125C47.8438 12.6875 53.125 18.1562 54.375 24.8125 55.4062 30.4062 53.75 35.5938 50.5 39.375" stroke="#FDDA24" stroke-width="3.125" stroke-linecap="round" stroke-linejoin="round" stroke-miterlimit="10" fill="none" transform="matrix(1 0 0 1.01333 177 613)"/><path d="M26.5625 28.125C26.5625 22.0938 31.4688 17.1875 37.5 17.1875" stroke="#FF7F37" stroke-width="3.125" stroke-linecap="round" stroke-linejoin="round" stroke-miterlimit="10" fill="none" transform="matrix(1 0 0 1.01333 177 613)"/><path d="M45.3125 57.8125 29.6875 57.8125" stroke="#9063CD" stroke-width="3.125" stroke-linecap="round" stroke-linejoin="round" stroke-miterlimit="10" fill="none" transform="matrix(1 0 0 1.01333 177 613)"/><path d="M45.3125 64.0625 29.6875 64.0625" stroke="#00CCEA" stroke-width="3.125" stroke-linecap="round" stroke-linejoin="round" stroke-miterlimit="10" fill="none" transform="matrix(1 0 0 1.01333 177 613)"/></g></svg>