<svg width="75" height="75" xmlns="http://www.w3.org/2000/svg" xmlns:xlink="http://www.w3.org/1999/xlink" overflow="hidden"><defs><clipPath id="clip0"><rect x="542" y="29" width="75" height="75"/></clipPath></defs><g clip-path="url(#clip0)" transform="translate(-542 -29)"><path d="M599.781 68.8438 599.781 75.875C599.781 87.0933 590.687 96.1875 579.469 96.1875" stroke="#9063CD" stroke-width="3.125" stroke-linecap="round" stroke-linejoin="round" stroke-miterlimit="10" fill="none"/><path d="M590.406 61.8125 590.406 60.25C590.406 57.6562 592.5 55.5625 595.094 55.5625L595.094 55.5625C597.688 55.5625 599.781 57.6562 599.781 60.25L599.781 68.8438" stroke="#FF7F37" stroke-width="3.125" stroke-linecap="round" stroke-linejoin="round" stroke-miterlimit="10" fill="none"/><path d="M581.031 69.625C581.031 72.2188 583.125 74.3125 585.719 74.3125 588.312 74.3125 590.406 72.2188 590.406 69.625L590.406 57.125C590.406 54.5312 588.312 52.4375 585.719 52.4375L585.719 52.4375C583.125 52.4375 581.031 54.5312 581.031 57.125L581.031 69.625Z" stroke="#FDDA24" stroke-width="3.125" stroke-linecap="round" stroke-linejoin="round" stroke-miterlimit="10" fill="none"/><path d="M571.656 64.9375 571.656 54C571.656 51.4062 573.75 49.3125 576.344 49.3125L576.344 49.3125C578.938 49.3125 581.031 51.4062 581.031 54L581.031 71.1875" stroke="#00C389" stroke-width="3.125" stroke-linecap="round" stroke-linejoin="round" stroke-miterlimit="10" fill="none"/><path d="M571.656 71.1875 571.656 41.5C571.656 38.9062 569.562 36.8125 566.969 36.8125L566.969 36.8125C564.375 36.8125 562.281 38.9062 562.281 41.5L562.281 71.1875" stroke="#00CCEA" stroke-width="3.125" stroke-linecap="round" stroke-linejoin="round" stroke-miterlimit="10" fill="none"/><path d="M599.781 69.625C599.781 72.2188 597.688 74.3125 595.094 74.3125 592.5 74.3125 590.406 72.2188 590.406 69.625" stroke="#FF7F37" stroke-width="3.125" stroke-linecap="round" stroke-linejoin="round" stroke-miterlimit="10" fill="none"/><path d="M579.469 96.1875 576.344 96.1875C565.125 96.1875 556.031 87.0933 556.031 75.875L556.031 75.875C556.031 73.2812 558.125 71.1875 560.719 71.1875L581.031 71.1875C581.031 76.375 576.844 80.5625 571.656 80.5625L568.531 80.5625" stroke="#F5B6CD" stroke-width="3.125" stroke-linecap="round" stroke-linejoin="round" stroke-miterlimit="10" fill="none"/></g></svg>