<svg width="75" height="75" xmlns="http://www.w3.org/2000/svg" xmlns:xlink="http://www.w3.org/1999/xlink" overflow="hidden"><defs><clipPath id="clip0"><rect x="1155" y="613" width="75" height="75"/></clipPath></defs><g clip-path="url(#clip0)" transform="translate(-1155 -613)"><path d="M1222.19 642.688 1178.44 642.688" stroke="#00CCEA" stroke-width="3.125" stroke-linecap="round" stroke-linejoin="round" stroke-miterlimit="10" fill="none"/><path d="M1178.44 642.688 1162.81 642.688" stroke="#9063CD" stroke-width="3.125" stroke-linecap="round" stroke-linejoin="round" stroke-miterlimit="10" fill="none"/><path d="M1206.56 627.062 1178.44 627.062" stroke="#00C389" stroke-width="3.125" stroke-linecap="round" stroke-linejoin="round" stroke-miterlimit="10" fill="none"/><path d="M1208.81 657.531 1222.19 642.688 1206.56 627.062M1194.06 673.938 1208.81 657.531" stroke="#FF7F37" stroke-width="3.125" stroke-linecap="round" stroke-linejoin="round" stroke-miterlimit="10" fill="none"/><path d="M1176.88 658.219 1192.5 675.5 1210.16 655.969M1162.81 642.688 1176.88 658.219" stroke="#FDDA24" stroke-width="3.125" stroke-linecap="round" stroke-linejoin="round" stroke-miterlimit="10" fill="none"/><path d="M1178.44 627.062 1162.81 642.688 1176.84 658.281" stroke="#9063CD" stroke-width="3.125" stroke-linecap="round" stroke-linejoin="round" stroke-miterlimit="10" fill="none"/><path d="M1206.56 641.125C1206.56 633.344 1200.28 627.062 1192.5 627.062 1184.72 627.062 1178.44 633.344 1178.44 641.125" stroke="#00C389" stroke-width="3.125" stroke-linecap="round" stroke-linejoin="round" stroke-miterlimit="10" fill="none"/><path d="M1178.44 641.125C1178.44 642.688 1192.5 673.938 1192.5 673.938 1192.5 673.938 1206.56 642.688 1206.56 641.125" stroke="#F5B6CD" stroke-width="3.125" stroke-linecap="round" stroke-linejoin="round" stroke-miterlimit="10" fill="none"/></g></svg>