<svg width="75" height="76" xmlns="http://www.w3.org/2000/svg" xmlns:xlink="http://www.w3.org/1999/xlink" overflow="hidden"><defs><clipPath id="clip0"><rect x="799" y="125" width="75" height="76"/></clipPath></defs><g clip-path="url(#clip0)" transform="translate(-799 -125)"><path d="M45.2188 45.2188C43.25 47.1875 40.5 48.4375 37.5 48.4375 31.4688 48.4375 26.5625 43.5312 26.5625 37.5 26.5625 34.4688 27.7813 31.75 29.7812 29.7812" stroke="#9063CD" stroke-width="3.125" stroke-linecap="round" stroke-linejoin="round" stroke-miterlimit="10" fill="none" transform="matrix(1 0 0 1.01333 799 125)"/><path d="M29.7812 29.7812C31.75 27.7813 34.4688 26.5625 37.5 26.5625 43.5312 26.5625 48.4375 31.4688 48.4375 37.5 48.4375 40.5312 47.2188 43.25 45.2188 45.2188" stroke="#00C389" stroke-width="3.125" stroke-linecap="round" stroke-linejoin="round" stroke-miterlimit="10" fill="none" transform="matrix(1 0 0 1.01333 799 125)"/><path d="M53.3125 20.7188C50.7012 18.2392 47.5432 16.4087 44.0938 15.375L44.0938 12.5C44.0938 9.90625 42 7.8125 39.4062 7.8125L35.625 7.8125C33.0312 7.8125 30.9375 9.90625 30.9375 12.5L30.9375 15.375C29.2188 15.875 27.5938 16.5625 26.0938 17.4375 24.5 18.3438 23.0312 19.4375 21.6875 20.7188" stroke="#FF7F37" stroke-width="3.125" stroke-linecap="round" stroke-linejoin="round" stroke-miterlimit="10" fill="none" transform="matrix(1 0 0 1.01333 799 125)"/><path d="M53.3125 54.1562 55.8125 55.5938C58.0625 56.875 60.9062 56.125 62.2188 53.875L64.125 50.5938C65.4062 48.3438 64.6562 45.5 62.4062 44.1875L59.9062 42.75C60.3125 41.0312 60.5625 39.25 60.5625 37.4062 60.5625 35.5625 60.3125 33.7812 59.9062 32.0625L62.4062 30.625C64.6562 29.3438 65.4062 26.4688 64.125 24.2188L62.2188 20.9375C60.9062 18.75 58.0312 17.9688 55.8125 19.2812L53.3125 20.7188" stroke="#00CCEA" stroke-width="3.125" stroke-linecap="round" stroke-linejoin="round" stroke-miterlimit="10" fill="none" transform="matrix(1 0 0 1.01333 799 125)"/><path d="M21.6875 54.1562C24.2812 56.5938 27.4063 58.4687 30.9063 59.5L30.9063 62.375C30.9063 64.9688 33 67.0625 35.5938 67.0625L39.375 67.0625C41.9688 67.0625 44.0625 64.9688 44.0625 62.375L44.0625 59.5C47.5151 58.4737 50.6747 56.6422 53.2813 54.1563" stroke="#F5B6CD" stroke-width="3.125" stroke-linecap="round" stroke-linejoin="round" stroke-miterlimit="10" fill="none" transform="matrix(1 0 0 1.01333 799 125)"/><path d="M21.6875 20.7188 19.1875 19.2812C16.9688 17.9688 14.0938 18.75 12.7812 20.9688L10.9062 24.2812C9.59375 26.5 10.375 29.375 12.625 30.6563L15.125 32.0938C14.7188 33.8125 14.4688 35.5938 14.4688 37.4375 14.4688 39.2812 14.7188 41.0625 15.125 42.7812L12.625 44.2188C10.375 45.5 9.625 48.375 10.9062 50.625L12.8125 53.9062C14.0938 56.1562 16.9688 56.9062 19.2188 55.625L21.7188 54.1875" stroke="#FDDA24" stroke-width="3.125" stroke-linecap="round" stroke-linejoin="round" stroke-miterlimit="10" fill="none" transform="matrix(1 0 0 1.01333 799 125)"/></g></svg>