<svg width="76" height="75" xmlns="http://www.w3.org/2000/svg" xmlns:xlink="http://www.w3.org/1999/xlink" overflow="hidden"><defs><clipPath id="clip0"><rect x="674" y="223" width="76" height="75"/></clipPath></defs><g clip-path="url(#clip0)" transform="translate(-674 -223)"><path d="M23.4375 18.75C23.4375 21.3388 21.3388 23.4375 18.75 23.4375 16.1612 23.4375 14.0625 21.3388 14.0625 18.75 14.0625 16.1612 16.1612 14.0625 18.75 14.0625 21.3388 14.0625 23.4375 16.1612 23.4375 18.75Z" stroke="#FDDA24" stroke-width="3.125" stroke-linecap="round" stroke-linejoin="round" stroke-miterlimit="10" fill="none" transform="matrix(1.01333 0 0 1 674 223)"/><path d="M60.9375 56.25C60.9375 58.8388 58.8388 60.9375 56.25 60.9375 53.6612 60.9375 51.5625 58.8388 51.5625 56.25 51.5625 53.6612 53.6612 51.5625 56.25 51.5625 58.8388 51.5625 60.9375 53.6612 60.9375 56.25Z" stroke="#FDDA24" stroke-width="3.125" stroke-linecap="round" stroke-linejoin="round" stroke-miterlimit="10" fill="none" transform="matrix(1.01333 0 0 1 674 223)"/><path d="M23.4375 56.25C23.4375 58.8388 21.3388 60.9375 18.75 60.9375 16.1612 60.9375 14.0625 58.8388 14.0625 56.25 14.0625 53.6612 16.1612 51.5625 18.75 51.5625 21.3388 51.5625 23.4375 53.6612 23.4375 56.25Z" stroke="#00CCEA" stroke-width="3.125" stroke-linecap="round" stroke-linejoin="round" stroke-miterlimit="10" fill="none" transform="matrix(1.01333 0 0 1 674 223)"/><path d="M60.9375 18.75C60.9375 21.3388 58.8388 23.4375 56.25 23.4375 53.6612 23.4375 51.5625 21.3388 51.5625 18.75 51.5625 16.1612 53.6612 14.0625 56.25 14.0625 58.8388 14.0625 60.9375 16.1612 60.9375 18.75Z" stroke="#00CCEA" stroke-width="3.125" stroke-linecap="round" stroke-linejoin="round" stroke-miterlimit="10" fill="none" transform="matrix(1.01333 0 0 1 674 223)"/><path d="M42.1875 12.5C42.1875 15.0888 40.0888 17.1875 37.5 17.1875 34.9112 17.1875 32.8125 15.0888 32.8125 12.5 32.8125 9.91117 34.9112 7.8125 37.5 7.8125 40.0888 7.8125 42.1875 9.91117 42.1875 12.5Z" stroke="#FF7F37" stroke-width="3.125" stroke-linecap="round" stroke-linejoin="round" stroke-miterlimit="10" fill="none" transform="matrix(1.01333 0 0 1 674 223)"/><path d="M42.1875 62.5C42.1875 65.0888 40.0888 67.1875 37.5 67.1875 34.9112 67.1875 32.8125 65.0888 32.8125 62.5 32.8125 59.9112 34.9112 57.8125 37.5 57.8125 40.0888 57.8125 42.1875 59.9112 42.1875 62.5Z" stroke="#FF7F37" stroke-width="3.125" stroke-linecap="round" stroke-linejoin="round" stroke-miterlimit="10" fill="none" transform="matrix(1.01333 0 0 1 674 223)"/><path d="M67.1875 37.5C67.1875 40.0888 65.0888 42.1875 62.5 42.1875 59.9112 42.1875 57.8125 40.0888 57.8125 37.5 57.8125 34.9112 59.9112 32.8125 62.5 32.8125 65.0888 32.8125 67.1875 34.9112 67.1875 37.5Z" stroke="#00C389" stroke-width="3.125" stroke-linecap="round" stroke-linejoin="round" stroke-miterlimit="10" fill="none" transform="matrix(1.01333 0 0 1 674 223)"/><path d="M17.1875 37.5C17.1875 40.0888 15.0888 42.1875 12.5 42.1875 9.91117 42.1875 7.8125 40.0888 7.8125 37.5 7.8125 34.9112 9.91117 32.8125 12.5 32.8125 15.0888 32.8125 17.1875 34.9112 17.1875 37.5Z" stroke="#00C389" stroke-width="3.125" stroke-linecap="round" stroke-linejoin="round" stroke-miterlimit="10" fill="none" transform="matrix(1.01333 0 0 1 674 223)"/><path d="M29.6875 45.3125 23.4375 51.5625M51.5625 23.4375 45.3125 29.6875" stroke="#00CCEA" stroke-width="3.125" stroke-linecap="round" stroke-linejoin="round" stroke-miterlimit="10" fill="none" transform="matrix(1.01333 0 0 1 674 223)"/><path d="M29.6875 29.6875 23.4375 23.4375M51.5625 51.5625 45.3125 45.3125" stroke="#FDDA24" stroke-width="3.125" stroke-linecap="round" stroke-linejoin="round" stroke-miterlimit="10" fill="none" transform="matrix(1.01333 0 0 1 674 223)"/><path d="M37.5 48.5625 37.5 57.375M37.5 17.625 37.5 26.4375" stroke="#FF7F37" stroke-width="3.125" stroke-linecap="round" stroke-linejoin="round" stroke-miterlimit="10" fill="none" transform="matrix(1.01333 0 0 1 674 223)"/><path d="M26.4375 37.5 17.625 37.5M57.375 37.5 48.5625 37.5" stroke="#00C389" stroke-width="3.125" stroke-linecap="round" stroke-linejoin="round" stroke-miterlimit="10" fill="none" transform="matrix(1.01333 0 0 1 674 223)"/><path d="M29.7812 45.2188C31.75 47.1875 34.5 48.4375 37.5 48.4375 43.5312 48.4375 48.4375 43.5312 48.4375 37.5 48.4375 34.4688 47.2188 31.75 45.2188 29.7812" stroke="#9063CD" stroke-width="3.125" stroke-linecap="round" stroke-linejoin="round" stroke-miterlimit="10" fill="none" transform="matrix(1.01333 0 0 1 674 223)"/><path d="M45.2188 29.7812C43.25 27.7813 40.5312 26.5625 37.5 26.5625 31.4688 26.5625 26.5625 31.4688 26.5625 37.5 26.5625 40.5312 27.7813 43.25 29.7812 45.2188" stroke="#F5B6CD" stroke-width="3.125" stroke-linecap="round" stroke-linejoin="round" stroke-miterlimit="10" fill="none" transform="matrix(1.01333 0 0 1 674 223)"/></g></svg>