<svg width="76" height="75" xmlns="http://www.w3.org/2000/svg" xmlns:xlink="http://www.w3.org/1999/xlink" overflow="hidden"><defs><clipPath id="clip0"><rect x="297" y="375" width="76" height="75"/></clipPath></defs><g clip-path="url(#clip0)" transform="translate(-297 -375)"><path d="M64.0625 23.4375 37.5 9.375 10.9375 23.4375" stroke="#FF7F37" stroke-width="3.125" stroke-linecap="round" stroke-linejoin="round" stroke-miterlimit="10" fill="none" transform="matrix(1.01333 0 0 1 297 375)"/><path d="M37.5 65.625 64.0625 51.5625 64.0625 23.4375" stroke="#FDDA24" stroke-width="3.125" stroke-linecap="round" stroke-linejoin="round" stroke-miterlimit="10" fill="none" transform="matrix(1.01333 0 0 1 297 375)"/><path d="M10.9375 23.4375 10.9375 51.5625 37.5 65.625" stroke="#00C389" stroke-width="3.125" stroke-linecap="round" stroke-linejoin="round" stroke-miterlimit="10" fill="none" transform="matrix(1.01333 0 0 1 297 375)"/><path d="M37.5 37.5 37.5 65.625" stroke="#00CCEA" stroke-width="3.125" stroke-linecap="round" stroke-linejoin="round" stroke-miterlimit="10" fill="none" transform="matrix(1.01333 0 0 1 297 375)"/><path d="M64.0625 23.4375 37.5 37.5 10.9375 23.4375" stroke="#9063CD" stroke-width="3.125" stroke-linecap="round" stroke-linejoin="round" stroke-miterlimit="10" fill="none" transform="matrix(1.01333 0 0 1 297 375)"/><path d="M47.1562 32.4062 20.5938 18.3438M55.9062 27.9062 29.3438 13.8437M47.1562 32.4375 47.1562 42.5625 55.9062 38.0938 55.9062 27.9688" stroke="#F5B6CD" stroke-width="3.125" stroke-linecap="round" stroke-linejoin="round" stroke-miterlimit="10" fill="none" transform="matrix(1.01333 0 0 1 297 375)"/></g></svg>